<svg xmlns="http://www.w3.org/2000/svg" viewBox="0 0 96 96" fill="none" stroke-linecap="round" stroke-linejoin="round">
  <g transform="rotate(-35 44 44)">
    <ellipse cx="44" cy="34" rx="20" ry="25" fill="#1a1f36" stroke="#00e1f0" stroke-width="5"/>
    <path d="M32 16v36M38 11v46M44 9v50M50 11v46M56 16v36M25 22h38M24 30h40M24 38h40M25 46h38M29 54h30" stroke="#7ff3fa" stroke-width="1.5" opacity=".7"/>
    <path d="M44 59v8" stroke="#00e1f0" stroke-width="5"/>
    <rect x="39" y="66" width="10" height="24" rx="4" fill="#e3174f" stroke="#04181b" stroke-width="3"/>
  </g>
  <circle cx="72" cy="66" r="13" fill="#d4f53c" stroke="#04181b" stroke-width="3"/>
  <path d="M61 60c6 2 8 8 6 15M83 72c-6-2-8-8-6-15" stroke="#fff" stroke-width="2.5"/>
  <path d="M86 40l-6 4M88 50h-7" stroke="#fff" stroke-width="3"/>
</svg>
